<svg width="463" height="32" viewBox="0 0 463 32" fill="none" xmlns="http://www.w3.org/2000/svg">
<path d="M361.094 19.46L363.712 16.968C365.07 15.694 365.336 14.826 365.336 13.874C365.336 12.138 363.964 11.06 361.836 11.06C360.226 11.06 358.868 11.662 358.112 12.684L359.386 13.664C359.932 12.964 360.73 12.642 361.682 12.642C362.886 12.642 363.502 13.16 363.502 14.056C363.502 14.602 363.334 15.176 362.382 16.086L358.49 19.782V21H365.714V19.46H361.094ZM370.811 21.14C373.149 21.14 374.913 19.32 374.913 16.1C374.913 12.88 373.149 11.06 370.811 11.06C368.487 11.06 366.723 12.88 366.723 16.1C366.723 19.32 368.487 21.14 370.811 21.14ZM370.811 19.558C369.481 19.558 368.557 18.466 368.557 16.1C368.557 13.734 369.481 12.642 370.811 12.642C372.155 12.642 373.079 13.734 373.079 16.1C373.079 18.466 372.155 19.558 370.811 19.558ZM380.179 15.246L382.559 12.418V11.2H375.881V12.726H380.333L378.107 15.372V16.618H379.003C380.487 16.618 381.131 17.192 381.131 18.074C381.131 18.984 380.361 19.558 379.059 19.558C377.953 19.558 376.889 19.18 376.189 18.592L375.405 20.006C376.315 20.72 377.701 21.14 379.087 21.14C381.719 21.14 382.965 19.712 382.965 18.06C382.965 16.59 382.027 15.484 380.179 15.246ZM386.565 19.46L389.183 16.968C390.541 15.694 390.807 14.826 390.807 13.874C390.807 12.138 389.435 11.06 387.307 11.06C385.697 11.06 384.339 11.662 383.583 12.684L384.857 13.664C385.403 12.964 386.201 12.642 387.153 12.642C388.357 12.642 388.973 13.16 388.973 14.056C388.973 14.602 388.805 15.176 387.853 16.086L383.961 19.782V21H391.185V19.46H386.565ZM391.97 11.2V14.406H393.664V12.74H397.514L393.832 21H395.778L399.586 12.418V11.2H391.97ZM408.319 21.14C411.007 21.14 412.281 19.796 412.281 18.228C412.281 14.63 406.471 15.988 406.471 13.902C406.471 13.16 407.087 12.572 408.599 12.572C409.453 12.572 410.419 12.824 411.301 13.342L411.875 11.928C411.021 11.368 409.789 11.06 408.613 11.06C405.925 11.06 404.665 12.404 404.665 13.986C404.665 17.626 410.489 16.24 410.489 18.354C410.489 19.082 409.845 19.628 408.319 19.628C407.115 19.628 405.869 19.18 405.085 18.55L404.455 19.964C405.267 20.664 406.793 21.14 408.319 21.14ZM417.922 19.348C417.656 19.558 417.306 19.656 416.942 19.656C416.27 19.656 415.906 19.264 415.906 18.536V14.98H417.908V13.58H415.906V11.872H414.156V13.58H412.924V14.98H414.156V18.578C414.156 20.23 415.094 21.098 416.732 21.098C417.362 21.098 417.992 20.93 418.412 20.594L417.922 19.348ZM425.339 13.524V17.304C425.339 18.802 424.513 19.558 423.295 19.558C422.189 19.558 421.545 18.914 421.545 17.556V13.524H419.795V17.794C419.795 20.048 421.097 21.098 423.015 21.098C423.981 21.098 424.863 20.734 425.423 20.048V21H427.089V13.524H425.339ZM434.952 10.612V14.448C434.364 13.762 433.51 13.44 432.544 13.44C430.374 13.44 428.764 14.938 428.764 17.262C428.764 19.586 430.374 21.098 432.544 21.098C433.566 21.098 434.434 20.748 435.022 20.034V21H436.702V10.612H434.952ZM432.754 19.6C431.494 19.6 430.528 18.69 430.528 17.262C430.528 15.834 431.494 14.924 432.754 14.924C434.014 14.924 434.98 15.834 434.98 17.262C434.98 18.69 434.014 19.6 432.754 19.6ZM446.02 17.304C446.02 14.966 444.424 13.44 442.24 13.44C440.014 13.44 438.376 15.036 438.376 17.262C438.376 19.488 440 21.098 442.506 21.098C443.794 21.098 444.844 20.678 445.516 19.88L444.578 18.802C444.046 19.348 443.388 19.614 442.548 19.614C441.246 19.614 440.336 18.914 440.126 17.822H445.992C446.006 17.654 446.02 17.444 446.02 17.304ZM442.24 14.84C443.388 14.84 444.214 15.582 444.354 16.66H440.112C440.28 15.568 441.106 14.84 442.24 14.84ZM451.943 13.44C450.851 13.44 449.941 13.804 449.367 14.49V13.524H447.701V21H449.451V17.22C449.451 15.722 450.291 14.966 451.537 14.966C452.657 14.966 453.315 15.61 453.315 16.94V21H455.065V16.716C455.065 14.462 453.735 13.44 451.943 13.44ZM461.289 19.348C461.023 19.558 460.673 19.656 460.309 19.656C459.637 19.656 459.273 19.264 459.273 18.536V14.98H461.275V13.58H459.273V11.872H457.523V13.58H456.291V14.98H457.523V18.578C457.523 20.23 458.461 21.098 460.099 21.098C460.729 21.098 461.359 20.93 461.779 20.594L461.289 19.348Z" fill="#E6E6E6"/>
<path d="M247.884 23.716H249.55C248.388 21.672 247.898 19.558 247.898 17.164C247.898 14.77 248.388 12.656 249.55 10.612H247.884C246.792 12.278 246.176 14.588 246.176 17.164C246.176 19.74 246.792 22.022 247.884 23.716ZM250.102 11.2V12.726H252.174V21H253.994V11.2H250.102ZM260.026 21.14C262.364 21.14 264.128 19.32 264.128 16.1C264.128 12.88 262.364 11.06 260.026 11.06C257.702 11.06 255.938 12.88 255.938 16.1C255.938 19.32 257.702 21.14 260.026 21.14ZM260.026 19.558C258.696 19.558 257.772 18.466 257.772 16.1C257.772 13.734 258.696 12.642 260.026 12.642C261.37 12.642 262.294 13.734 262.294 16.1C262.294 18.466 261.37 19.558 260.026 19.558ZM267.768 19.46L270.386 16.968C271.744 15.694 272.01 14.826 272.01 13.874C272.01 12.138 270.638 11.06 268.51 11.06C266.9 11.06 265.542 11.662 264.786 12.684L266.06 13.664C266.606 12.964 267.404 12.642 268.356 12.642C269.56 12.642 270.176 13.16 270.176 14.056C270.176 14.602 270.008 15.176 269.056 16.086L265.164 19.782V21H272.388V19.46H267.768ZM277.61 15.246L279.99 12.418V11.2H273.312V12.726H277.764L275.538 15.372V16.618H276.434C277.918 16.618 278.562 17.192 278.562 18.074C278.562 18.984 277.792 19.558 276.49 19.558C275.384 19.558 274.32 19.18 273.62 18.592L272.836 20.006C273.746 20.72 275.132 21.14 276.518 21.14C279.15 21.14 280.396 19.712 280.396 18.06C280.396 16.59 279.458 15.484 277.61 15.246ZM294.528 21L292.274 17.78C293.604 17.262 294.36 16.17 294.36 14.686C294.36 12.516 292.764 11.2 290.188 11.2H286.156V21H287.976V18.144H290.188C290.314 18.144 290.44 18.144 290.566 18.13L292.568 21H294.528ZM292.526 14.686C292.526 15.918 291.7 16.646 290.104 16.646H287.976V12.74H290.104C291.7 12.74 292.526 13.454 292.526 14.686ZM303.256 17.304C303.256 14.966 301.66 13.44 299.476 13.44C297.25 13.44 295.612 15.036 295.612 17.262C295.612 19.488 297.236 21.098 299.742 21.098C301.03 21.098 302.08 20.678 302.752 19.88L301.814 18.802C301.282 19.348 300.624 19.614 299.784 19.614C298.482 19.614 297.572 18.914 297.362 17.822H303.228C303.242 17.654 303.256 17.444 303.256 17.304ZM299.476 14.84C300.624 14.84 301.45 15.582 301.59 16.66H297.348C297.516 15.568 298.342 14.84 299.476 14.84ZM310.12 13.524L307.726 19.068L305.402 13.524H303.582L306.788 21H308.594L311.8 13.524H310.12ZM313.776 12.292C314.434 12.292 314.896 11.816 314.896 11.2C314.896 10.626 314.42 10.192 313.776 10.192C313.132 10.192 312.656 10.654 312.656 11.242C312.656 11.83 313.132 12.292 313.776 12.292ZM312.894 21H314.644V13.524H312.894V21ZM323.969 17.304C323.969 14.966 322.373 13.44 320.189 13.44C317.963 13.44 316.325 15.036 316.325 17.262C316.325 19.488 317.949 21.098 320.455 21.098C321.743 21.098 322.793 20.678 323.465 19.88L322.527 18.802C321.995 19.348 321.337 19.614 320.497 19.614C319.195 19.614 318.285 18.914 318.075 17.822H323.941C323.955 17.654 323.969 17.444 323.969 17.304ZM320.189 14.84C321.337 14.84 322.163 15.582 322.303 16.66H318.061C318.229 15.568 319.055 14.84 320.189 14.84ZM335.621 13.524L333.591 19.068L331.575 13.524H330.105L328.047 19.04L326.073 13.524H324.421L327.165 21H328.845L330.805 15.848L332.737 21H334.417L337.175 13.524H335.621ZM340.593 21.098C342.693 21.098 343.981 20.188 343.981 18.788C343.981 15.862 339.361 17.206 339.361 15.694C339.361 15.204 339.865 14.854 340.929 14.854C341.643 14.854 342.357 14.994 343.071 15.414L343.743 14.084C343.071 13.678 341.937 13.44 340.943 13.44C338.927 13.44 337.653 14.364 337.653 15.778C337.653 18.76 342.273 17.416 342.273 18.844C342.273 19.362 341.811 19.67 340.705 19.67C339.767 19.67 338.759 19.362 338.101 18.928L337.429 20.258C338.101 20.734 339.347 21.098 340.593 21.098ZM346.314 23.716C347.42 22.022 348.022 19.74 348.022 17.164C348.022 14.588 347.42 12.278 346.314 10.612H344.648C345.81 12.656 346.314 14.77 346.314 17.164C346.314 19.558 345.81 21.672 344.648 23.716H346.314Z" fill="#E6E6E6"/>
<path d="M177.48 24C177.32 24 177.184 23.944 177.072 23.832C176.96 23.72 176.904 23.584 176.904 23.424V20.352H169.296C169.136 20.352 169 20.296 168.888 20.184C168.776 20.072 168.72 19.936 168.72 19.776V18.144C168.72 17.888 168.808 17.648 168.984 17.424L176.064 7.608C176.144 7.48 176.264 7.384 176.424 7.32C176.584 7.24 176.76 7.2 176.952 7.2H179.568C179.744 7.2 179.88 7.256 179.976 7.368C180.088 7.464 180.144 7.6 180.144 7.776V17.52H182.28C182.456 17.52 182.6 17.576 182.712 17.688C182.824 17.784 182.88 17.92 182.88 18.096V19.776C182.88 19.936 182.824 20.072 182.712 20.184C182.6 20.296 182.464 20.352 182.304 20.352H180.144V23.424C180.144 23.584 180.088 23.72 179.976 23.832C179.88 23.944 179.744 24 179.568 24H177.48ZM176.976 17.616V10.68L172.056 17.616H176.976ZM184.838 25.8C184.694 25.8 184.582 25.752 184.502 25.656C184.422 25.56 184.39 25.44 184.406 25.296L185.054 21.216C185.086 20.992 185.166 20.808 185.294 20.664C185.422 20.52 185.598 20.448 185.822 20.448H188.03C188.142 20.448 188.238 20.496 188.318 20.592C188.414 20.672 188.462 20.776 188.462 20.904C188.462 20.984 188.438 21.088 188.39 21.216L186.854 25.2C186.774 25.392 186.67 25.536 186.542 25.632C186.43 25.744 186.27 25.8 186.062 25.8H184.838ZM192.48 24C192.336 24 192.216 23.952 192.12 23.856C192.024 23.744 191.976 23.616 191.976 23.472C191.976 23.424 191.992 23.352 192.024 23.256L197.808 10.056H190.272C190.112 10.056 189.976 10 189.864 9.888C189.752 9.776 189.696 9.64 189.696 9.48V7.8C189.696 7.624 189.744 7.48 189.84 7.368C189.952 7.256 190.096 7.2 190.272 7.2H200.808C200.984 7.2 201.12 7.256 201.216 7.368C201.328 7.48 201.384 7.624 201.384 7.8V9.288C201.384 9.608 201.312 9.952 201.168 10.32L195.432 23.424C195.256 23.808 195 24 194.664 24H192.48ZM201.494 26.016C201.366 26.016 201.254 25.968 201.158 25.872C201.062 25.776 201.014 25.656 201.014 25.512C201.014 25.416 201.03 25.328 201.062 25.248L209.246 5.64C209.294 5.512 209.374 5.4 209.486 5.304C209.614 5.192 209.774 5.136 209.966 5.136H211.526C211.654 5.136 211.766 5.184 211.862 5.28C211.974 5.376 212.03 5.496 212.03 5.64C212.03 5.688 212.006 5.776 211.958 5.904L203.774 25.512C203.614 25.848 203.366 26.016 203.03 26.016H201.494ZM219.711 24.264C218.383 24.264 217.239 24.04 216.279 23.592C215.335 23.144 214.607 22.552 214.095 21.816C213.599 21.08 213.335 20.288 213.303 19.44V19.392C213.303 19.264 213.351 19.16 213.447 19.08C213.543 19 213.663 18.96 213.807 18.96H216.039C216.407 18.96 216.647 19.12 216.759 19.44C216.983 20.144 217.351 20.664 217.863 21C218.391 21.336 219.007 21.504 219.711 21.504C220.607 21.504 221.351 21.232 221.943 20.688C222.551 20.144 222.855 19.384 222.855 18.408C222.855 17.544 222.551 16.84 221.943 16.296C221.351 15.752 220.607 15.48 219.711 15.48C219.231 15.48 218.839 15.544 218.535 15.672C218.231 15.8 217.935 15.976 217.647 16.2C217.455 16.344 217.303 16.448 217.191 16.512C217.095 16.56 216.975 16.584 216.831 16.584H214.623C214.479 16.584 214.351 16.536 214.239 16.44C214.143 16.328 214.095 16.2 214.095 16.056L214.935 7.848C214.951 7.656 215.015 7.504 215.127 7.392C215.255 7.264 215.415 7.2 215.607 7.2H224.631C224.791 7.2 224.927 7.256 225.039 7.368C225.151 7.48 225.207 7.616 225.207 7.776V9.384C225.207 9.544 225.151 9.68 225.039 9.792C224.927 9.904 224.791 9.96 224.631 9.96H217.695L217.311 13.872C218.095 13.328 219.143 13.056 220.455 13.056C221.495 13.056 222.455 13.28 223.335 13.728C224.231 14.16 224.943 14.792 225.471 15.624C225.999 16.44 226.263 17.392 226.263 18.48C226.263 19.648 225.991 20.672 225.447 21.552C224.903 22.416 224.135 23.088 223.143 23.568C222.167 24.032 221.023 24.264 219.711 24.264Z" fill="white"/>
<path fill-rule="evenodd" clip-rule="evenodd" d="M12 23.2884L19.416 28L17.448 19.12L24 13.1453L15.372 12.3747L12 4L8.628 12.3747L0 13.1453L6.552 19.12L4.584 28L12 23.2884Z" fill="#FAA307"/>
<path fill-rule="evenodd" clip-rule="evenodd" d="M44 23.2884L51.416 28L49.448 19.12L56 13.1453L47.372 12.3747L44 4L40.628 12.3747L32 13.1453L38.552 19.12L36.584 28L44 23.2884Z" fill="#FAA307"/>
<path fill-rule="evenodd" clip-rule="evenodd" d="M76 23.2884L83.416 28L81.448 19.12L88 13.1453L79.372 12.3747L76 4L72.628 12.3747L64 13.1453L70.552 19.12L68.584 28L76 23.2884Z" fill="#FAA307"/>
<path fill-rule="evenodd" clip-rule="evenodd" d="M108 23.2884L115.416 28L113.448 19.12L120 13.1453L111.372 12.3747L108 4L104.628 12.3747L96 13.1453L102.552 19.12L100.584 28L108 23.2884Z" fill="#FAA307"/>
<path fill-rule="evenodd" clip-rule="evenodd" d="M140 23.2884L147.416 28L145.448 19.12L152 13.1453L143.372 12.3747L140 4L136.628 12.3747L128 13.1453L134.552 19.12L132.584 28L140 23.2884Z" fill="#FAA307"/>
</svg>
